<svg xmlns="http://www.w3.org/2000/svg" viewBox="0 0 96 96" aria-hidden="true">
  <g clip-path="url(#bank-svg--mask)">
    <path class="bank__background" d="M64.5 45h-33a2.5 2.5 0 0 1-2.5-2.5v-20c0-1.4 1.1-2.5 2.5-2.5h33c1.4 0 2.5 1.1 2.5 2.5v20c0 1.4-1.1 2.5-2.5 2.5z"/>
    <path d="M72 35h-3V22.5c0-2.5-2-4.5-4.5-4.5h-33C29 18 27 20 27 22.5V35h-3a8 8 0 0 0-8 8v35c0 1.1.9 2 2 2h60a2 2 0 0 0 2-2V43a8 8 0 0 0-8-8zM31 22.7c0-.4.3-.8.8-.8h32.5c.4 0 .8.3.8.8v19.5c0 .4-.3.8-.8.8H31.8a.8.8 0 0 1-.8-.8V22.7zM36 76h-8V59h8v17zm32 0H48V59h20v17zm8 0h-4V57a2 2 0 0 0-2-2H46a2 2 0 0 0-2 2v19h-4V57a2 2 0 0 0-2-2H26a2 2 0 0 0-2 2v19h-4V43a4 4 0 0 1 4-4h3v3.5c0 2.5 2 4.5 4.5 4.5h33c2.5 0 4.5-2 4.5-4.5V39h3a4 4 0 0 1 4 4v33z"/>
    <g clip-path="url(#bank--mask)">
      <g class="bank__logo">
        <path class="bank__logo-1" d="M39 32.5c0-1.1.9-2 2-2h1.2A8.3 8.3 0 0 1 55.5 26c.9.7 1 2 .3 2.8a2 2 0 0 1-2.8.3 4.3 4.3 0 0 0-6.1.7l-.5.7H49a2 2 0 0 1 2 2 2 2 0 0 1-2 2h-2.5c1.1 2.1 3.7 3 5.9 1.9l.7-.5c.9-.7 2.1-.5 2.8.4a2 2 0 0 1-.3 2.8 8.4 8.4 0 0 1-13.4-4.5H41c-1.1-.1-2-1-2-2.1z"/>
        <path class="bank__logo-2" d="M39 32.5c0-1.1.9-2 2-2h1.2A8.3 8.3 0 0 1 55.5 26c.9.7 1 2 .3 2.8a2 2 0 0 1-2.8.3 4.3 4.3 0 0 0-6.1.7l-.5.7H49a2 2 0 0 1 2 2 2 2 0 0 1-2 2h-2.5c1.1 2.1 3.7 3 5.9 1.9l.7-.5c.9-.7 2.1-.5 2.8.4a2 2 0 0 1-.3 2.8 8.4 8.4 0 0 1-13.4-4.5H41c-1.1-.1-2-1-2-2.1z"/>
        <path class="bank__logo-3" d="M39 32.5c0-1.1.9-2 2-2h1.2A8.3 8.3 0 0 1 55.5 26c.9.7 1 2 .3 2.8a2 2 0 0 1-2.8.3 4.3 4.3 0 0 0-6.1.7l-.5.7H49a2 2 0 0 1 2 2 2 2 0 0 1-2 2h-2.5c1.1 2.1 3.7 3 5.9 1.9l.7-.5c.9-.7 2.1-.5 2.8.4a2 2 0 0 1-.3 2.8 8.4 8.4 0 0 1-13.4-4.5H41c-1.1-.1-2-1-2-2.1z"/>
      </g>
    </g>
  </g>
  <defs>
    <clipPath id="bank-svg--mask"><rect x="0" y="0" width="96" height="96"/></clipPath>
    <clipPath id="bank--mask"><rect x="31" y="22" width="34" height="21"/></clipPath>
    <style>
      .start-animation .bank__background,
      .start-animation .bank__logo {
        animation-play-state: running;
      }
      @media (prefers-reduced-motion: reduce) {
        .start-animation .bank__background,
        .start-animation .bank__logo {
          animation-play-state: paused;
        }
      }
      .bank__background {
        animation-name: bank-background-fade;
        animation-duration: 4s;
        animation-iteration-count: infinite;
        animation-play-state: paused;
      }
      .bank__logo {
        transform: translateY(0);
        animation-name: bank-slide-in;
        animation-duration: 4s;
        animation-iteration-count: infinite;
        animation-play-state: paused;
      }
      .bank__logo-2 {
        transform: translateY(50px);
      }
      .bank__logo-3 {
        transform: translateY(100px);
      }
      @keyframes bank-slide-in {
        0% {
          transform: translateY(0);
        }
        5%, 26% {
          transform: translateY(0);
        }
        36%, 57% {
          transform: translateY(-50px);
        }
        67%, 88% {
          transform: translateY(-100px);
        }
        100% {
          transform: translateY(0);
        }
      }
      @keyframes bank-background-fade {
        0%, 26% {
          fill: #7474c1;
        }
        36%, 57% {
          fill: #7Fa9ae;
        }
        67%, 88% {
          fill: #ef6079;
        }
        100% {
          fill: #7474c1;
        }
      }
    </style>
  </defs>
</svg>
