<svg xmlns="http://www.w3.org/2000/svg"
height="80"
width="80"
viewBox="0 0 96 96"><g data-name="Layer 2"><circle cx="48" cy="48" r="48" fill="#fc0"/><path fill="none" d="M16 16h64v64H16z"/><path d="M35.22 28.6a1.18 1.18 0 0 1 .57.15L67.44 47a1.14 1.14 0 0 1 0 2L35.79 67.25a1.13 1.13 0 0 1-.57.15 1.12 1.12 0 0 1-1.13-1.13V29.73a1.16 1.16 0 0 1 .57-1 1.15 1.15 0 0 1 .56-.15m0-8a9.13 9.13 0 0 0-9.13 9.13v36.56a9.14 9.14 0 0 0 13.7 7.91l31.65-18.27a9.14 9.14 0 0 0 0-15.82L39.79 21.82a9.18 9.18 0 0 0-4.57-1.22z"/></g></svg>
